<svg xmlns="http://www.w3.org/2000/svg" viewBox="0 0 496 496" width="59" height="59"><path data-original="#F9BA48" data-old_color="#bc0a29" fill="#bc0a29" d="M386.528 319.584l-73.672 24.568-78.936-8.776-43.128-138.016 61.192-52.456 75.784-25.256 94.336 25.728 35.048 96.376-35.176 39.56z"/><circle cx="56" cy="456" r="8" data-original="#333333" class="active-path" data-old_color="#333333" fill="#303030"/><circle cx="336" cy="456" r="8" data-original="#333333" class="active-path" data-old_color="#333333" fill="#303030"/><circle cx="416" cy="456" r="8" data-original="#333333" class="active-path" data-old_color="#333333" fill="#303030"/><path data-original="#333333" class="active-path" data-old_color="#333333" fill="#303030" d="M496 72H363.688l29.048 65.368 19.936 5.432-24.36-54.8H480v13.48l-48.608 69.44 6.168 16.976.992.688 31.224-44.6L480 169.536V344h-32v-91.96l-16 18V360h64V166.464l-15.256-38.144L496 106.52z"/><path d="M424 256c0-13.232-10.768-24-24-24s-24 10.768-24 24v120H238.24l-15.992-64h-20.496L192 351.016V216H72v16h8v48.76l-58.384 5.84A23.915 23.915 0 0 0 0 310.48V456h16c0 22.056 17.944 40 40 40s40-17.944 40-40h104v16h88v-16h8c0 22.056 17.944 40 40 40s40-17.944 40-40c0 22.056 17.944 40 40 40s40-17.944 40-40h16v-64h24v-16h-72V256zm-32 0c0-4.416 3.584-8 8-8s8 3.584 8 8v120h-16V256zM221.76 376h-19.52l9.76-39.016L221.76 376zM120 232h32v48h-32v-48zm-24 0h8v64h64v-64h8v136h-72c-4.416 0-8-3.584-8-8V232zM56 480c-13.232 0-24-10.768-24-24s10.768-24 24-24 24 10.768 24 24-10.768 24-24 24zm36.608-40C86.416 425.896 72.36 416 56 416s-30.416 9.896-36.608 24H16V310.48a7.964 7.964 0 0 1 7.2-7.952l56.8-5.68V360c0 13.232 10.768 24 24 24h72v56H92.608zM272 456h-56v-16h56v16zm64 24c-13.232 0-24-10.768-24-24s10.768-24 24-24 24 10.768 24 24-10.768 24-24 24zm80 0c-13.232 0-24-10.768-24-24s10.768-24 24-24 24 10.768 24 24-10.768 24-24 24zm40-88v48h-3.392c-6.192-14.104-20.248-24-36.608-24s-30.416 9.896-36.608 24h-6.784c-6.192-14.104-20.248-24-36.608-24s-30.416 9.896-36.608 24H288v-16h-88v16h-8v-48h264z" data-original="#333333" class="active-path" data-old_color="#333333" fill="#303030"/><path data-original="#333333" class="active-path" data-old_color="#333333" fill="#303030" d="M319.66 333.65l-15.307 4.66-56.006-184 15.308-4.659zM480 0h16v56h-16zM368 0h16v24h-16zm0 40h16v16h-16zm40-24h16v40h-16zm32-8h16v24h-16z"/></svg>