<svg xmlns="http://www.w3.org/2000/svg" viewBox="0 0 295.238 295.238" width="59" height="59"><path d="M52.381 142.857V123.81H14.286v146.8c0 9.948 7.271 18.833 17.176 19.776 11.362 1.086 20.919-7.819 20.919-18.957v-90.476c-10.519 0-19.048-8.529-19.048-19.048 0-10.519 8.529-19.048 19.048-19.048zm-9.524 69.048c0 6.576-5.329 11.905-11.905 11.905s-11.905-5.329-11.905-11.905S24.376 200 30.952 200s11.905 5.329 11.905 11.905z" data-original="#F9BA48" data-old_color="#bc0a29" fill="#bc0a29"/><path d="M209.524 214.286c47.262 0 85.714-38.452 85.714-85.714s-38.452-85.714-85.714-85.714h-54.348c-5.005-3.005-10.833-4.762-17.081-4.762v-9.524h14.286V0H76.19v28.571h14.286v85.714H76.19v28.571h76.19v-28.571h-14.286v-9.524c6.248 0 12.076-1.757 17.081-4.762h54.348c15.757 0 28.571 12.814 28.571 28.571s-12.814 28.571-28.571 28.571H71.429v33.333h38.095c10.505 0 19.048 8.543 19.048 19.048v47.619H71.429v38.095h176.19v-38.095H200v-42.857h9.524v.002zM85.714 19.048V9.524h57.143v9.524H85.714zm57.143 104.762v9.524H85.714v-9.524h57.143zm-14.286-9.524H100V28.571h28.571V39.5c-13.752 4.11-23.81 16.862-23.81 31.929s10.057 27.819 23.81 31.929v10.928zm-14.285-42.857c0-13.129 10.681-23.81 23.81-23.81s23.81 10.681 23.81 23.81-10.681 23.81-23.81 23.81c-13.129-.001-23.81-10.682-23.81-23.81zm123.809 195.238v19.048H80.952v-19.048h57.143v-57.143c0-15.757-12.814-28.571-28.571-28.571H80.952v-14.286h128.571c21.005 0 38.095-17.09 38.095-38.095s-17.09-38.095-38.095-38.095H165.41c3.781-5.405 6.019-11.967 6.019-19.048s-2.238-13.643-6.019-19.048h44.114c42.01 0 76.19 34.181 76.19 76.19s-34.181 76.19-76.19 76.19h-19.048v61.905h47.619v.001zM52.381 38.095H14.286C6.41 38.095 0 44.505 0 52.381c0 6.21 3.981 11.505 9.524 13.471v204.762c0 12.6 9.438 23.367 21.486 24.519.757.067 1.514.105 2.271.105 5.924 0 11.676-2.195 16.071-6.19a23.884 23.884 0 0 0 7.79-17.619V65.852c5.543-1.967 9.524-7.262 9.524-13.471.001-7.876-6.409-14.286-14.285-14.286zm-4.762 137.219c-5.529-1.971-9.524-7.21-9.524-13.41s3.995-11.438 9.524-13.41v26.82zm4.762-118.171h-23.81v9.524h19.048v71.91c-10.852 2.214-19.048 11.833-19.048 23.329 0 11.495 8.195 21.114 19.048 23.329v86.195c0 4.014-1.705 7.867-4.676 10.571-3.01 2.743-6.919 4.048-11.024 3.648-7.219-.69-12.871-7.295-12.871-15.038v-47.076c3.029 3.1 7.238 5.038 11.905 5.038 9.19 0 16.667-7.476 16.667-16.667 0-9.19-7.476-16.667-16.667-16.667-4.667 0-8.876 1.938-11.905 5.038V57.143h-4.762c-2.624 0-4.762-2.138-4.762-4.762s2.138-4.762 4.762-4.762h38.095c2.624 0 4.762 2.138 4.762 4.762s-2.138 4.762-4.762 4.762zM23.81 211.905c0-3.938 3.205-7.143 7.143-7.143s7.143 3.205 7.143 7.143-3.205 7.143-7.143 7.143-7.143-3.205-7.143-7.143z" data-original="#333333" class="active-path" fill="#333"/></svg>